# xmcd
#
# Track frame offsets:
#  150
#  14298
#  30413
#  46475
#  63904
#  77682
#  91213
#  117133
#  131540
#  148579
#  165580
#  186228
#  203066
#
# Disc length: 2952 seconds
#
# Revision: 0
# Processed by: cddbd v1.5.2PL0 Copyright (c) Steve Scherf et al.
# Submitted via: AltoMP3_Maker 3.0
#
DISCID=a30b860d
DTITLE=Wes Mackey - Mr. Blues
DYEAR=1900
DGENRE=
TTITLE0=Who Do Da Voodoo?
TTITLE1=Baby Done Gone
TTITLE2=Baby What You Want Me To Do?
TTITLE3=AngelGirl
TTITLE4=Born In California
TTITLE5=Ain't That Good News
TTITLE6=A Change Is Going To Come
TTITLE7=Shame Shame Shame
TTITLE8=Nervous
TTITLE9=Bright Lights Big City
TTITLE10=Mr. Blues
TTITLE11=I'll Play The Blues For You
TTITLE12=In My Neighborhood
EXTD=
EXTT0=
EXTT1=
EXTT2=
EXTT3=
EXTT4=
EXTT5=
EXTT6=
EXTT7=
EXTT8=
EXTT9=
EXTT10=
EXTT11=
EXTT12=
PLAYORDER=
